<svg width="1148" height="1147" viewBox="0 0 1148 1147" fill="none" xmlns="http://www.w3.org/2000/svg">
<path d="M464 48.5L43 469.5L34.5 479L26.5 490L17.5 505L13.5 514L9.5 524L7 532.5L4.5 541.5L2.5 552L1.5 563L1 577L3 595.5L5.5 609.5L10.5 626.5L24.5 654L39.5 674L467.5 1102L481.5 1114.5L505.5 1130L528.5 1139.5L560 1146H583L606 1143L629 1136L647 1127.5L662 1118L676 1106.5L1112 669.5L1121 658L1129 644.5L1137.5 626.5L1142.5 609.5L1146 590.5L1147 572.5L1146 558.5L1144 544.5L1141.5 533L1134.5 513.5L1127 498.5L1115 481L1100.5 465L704.5 69L677 41.5L664 30.5L649 20.5L635 13.5L618.5 7.5L600 3L581 1H565L551 2.5L539.5 4.5L530.5 7L522 10L519 11L515.5 12.5L510 15L501 19.5L491.5 25.5L484 30.5L479 34.5L475.5 37.5L471 41.5L467 45.5L464 48.5Z" fill="white" stroke="white"/>
</svg>
